<svg xmlns="http://www.w3.org/2000/svg" xmlns:xlink="http://www.w3.org/1999/xlink" width="79.98" height="53.219" viewBox="0 0 79.98 53.219">
  <defs>
    <linearGradient id="linear-gradient" x1="0.885" y1="0.192" x2="0.159" y2="1.046" gradientUnits="objectBoundingBox">
      <stop offset="0" stop-color="#fff"/>
      <stop offset="1" stop-color="#cfcfcf"/>
    </linearGradient>
    <filter id="Trazado_2" x="0" y="0.148" width="44.764" height="53.021" filterUnits="userSpaceOnUse">
      <feOffset dy="3" input="SourceAlpha"/>
      <feGaussianBlur stdDeviation="2.5" result="blur"/>
      <feFlood flood-opacity="0.161"/>
      <feComposite operator="in" in2="blur"/>
      <feComposite in="SourceGraphic"/>
    </filter>
    <linearGradient id="linear-gradient-2" x1="0.5" x2="0.5" y2="1" gradientUnits="objectBoundingBox">
      <stop offset="0" stop-color="#ed743d"/>
      <stop offset="1" stop-color="#9e4c28"/>
    </linearGradient>
    <filter id="Trazado_3" x="29.764" y="0" width="50.216" height="53.219" filterUnits="userSpaceOnUse">
      <feOffset dy="3" input="SourceAlpha"/>
      <feGaussianBlur stdDeviation="2.5" result="blur-2"/>
      <feFlood flood-opacity="0.161"/>
      <feComposite operator="in" in2="blur-2"/>
      <feComposite in="SourceGraphic"/>
    </filter>
  </defs>
  <g id="Header" transform="translate(-2438.5 -1045.5)">
    <g id="Grupo_15" data-name="Grupo 15" transform="translate(2444.49 1048.288)">
      <g transform="matrix(1, 0, 0, 1, -5.99, -2.79)" filter="url(#Trazado_2)">
        <path id="Trazado_2-2" data-name="Trazado 2" d="M12.264,39.881H1.51V1.86H31.274v8.365H12.264Zm-.815-21.346H28.993v8.311H11.449Z" transform="translate(5.99 2.79)" fill="url(#linear-gradient)"/>
      </g>
      <g transform="matrix(1, 0, 0, 1, -5.99, -2.79)" filter="url(#Trazado_3)">
        <path id="Trazado_3-2" data-name="Trazado 3" d="M31.274,1.86,46.881,27.7h-4.67L57.582,1.712h8.853l.055,38.219H56.6l-.11-23.095h1.684L46.72,36.163H41.939L31.274,10.225" transform="translate(5.99 2.79)" fill="url(#linear-gradient-2)"/>
      </g>
    </g>
  </g>
</svg>
