<svg xmlns="http://www.w3.org/2000/svg" xmlns:xlink="http://www.w3.org/1999/xlink" width="120.802" height="24.607" viewBox="0 0 120.802 24.607">
  <defs>
    <linearGradient id="linear-gradient" x1="0.5" x2="0.5" y2="1" gradientUnits="objectBoundingBox">
      <stop offset="0" stop-color="#f64811"/>
      <stop offset="1" stop-color="#7b2409"/>
    </linearGradient>
  </defs>
  <g id="Logo" transform="translate(-9.111 -5.747)">
    <path id="Trazado_1" data-name="Trazado 1" d="M15.8,29.575H9.111V5.915H27.636v5.206H15.8ZM15.3,16.293H26.216v5.172H15.3Z" transform="translate(0 0.305)" fill="url(#linear-gradient)"/>
    <path id="Trazado_2" data-name="Trazado 2" d="M15.687,29.575V5.915H26.471a13.778,13.778,0,0,1,5.611,1.048,8.072,8.072,0,0,1,3.634,3.023,8.431,8.431,0,0,1,1.268,4.648A8.309,8.309,0,0,1,35.716,19.3a8.05,8.05,0,0,1-3.634,2.955,13.974,13.974,0,0,1-5.611,1.034h-7.1l3.009-2.842v9.127Zm6.693-8.347-3.009-3.11h6.693a4.659,4.659,0,0,0,3.144-.916,3.221,3.221,0,0,0,1.048-2.569,3.2,3.2,0,0,0-1.048-2.518,4.615,4.615,0,0,0-3.144-.927H19.372L22.38,8.109Zm7.91,8.347-5.882-8.62h7.133l5.916,8.62Z" transform="translate(11.949 0.305)" fill="url(#linear-gradient)"/>
    <path id="Trazado_3" data-name="Trazado 3" d="M23.1,29.575,33.549,5.915H40.14l10.482,23.66H43.656L35.475,9.194h2.64L29.931,29.575Z" transform="translate(25.424 0.305)" fill="url(#linear-gradient)"/>
    <path id="Trazado_4" data-name="Trazado 4" d="M32.555,29.575V5.915h5.51L51.08,21.665h-2.6V5.915h6.558v23.66h-5.51L36.476,13.825h2.6v15.75Z" transform="translate(42.598 0.305)" fill="url(#linear-gradient)"/>
    <path id="Trazado_5" data-name="Trazado 5" d="M53.55,30.354a14.557,14.557,0,0,1-5.172-.893,12.482,12.482,0,0,1-4.127-2.535,11.548,11.548,0,0,1-2.735-3.907,12.32,12.32,0,0,1-.98-4.969,12.326,12.326,0,0,1,.98-4.966,11.548,11.548,0,0,1,2.735-3.907A12.482,12.482,0,0,1,48.378,6.64a15.617,15.617,0,0,1,11.037.237,11.024,11.024,0,0,1,4.307,3.333L59.465,14.06A8.361,8.361,0,0,0,56.927,12a6.564,6.564,0,0,0-3.04-.71,7.367,7.367,0,0,0-2.671.473,5.763,5.763,0,0,0-2.079,1.372,6.391,6.391,0,0,0-1.352,2.144,8.048,8.048,0,0,0,0,5.547,6.391,6.391,0,0,0,1.352,2.144,5.727,5.727,0,0,0,2.079,1.372,7.367,7.367,0,0,0,2.671.473,6.564,6.564,0,0,0,3.04-.71,8.206,8.206,0,0,0,2.538-2.1l4.257,3.851A11.084,11.084,0,0,1,59.415,29.2,14.3,14.3,0,0,1,53.55,30.354Z" transform="translate(57.098 0)" fill="url(#linear-gradient)"/>
    <path id="Trazado_6" data-name="Trazado 6" d="M53.113,19.038a3.822,3.822,0,0,1-2.741-1.065,3.685,3.685,0,0,1-1.113-2.786,3.54,3.54,0,0,1,1.113-2.724,4.164,4.164,0,0,1,5.479,0,3.54,3.54,0,0,1,1.113,2.724,3.685,3.685,0,0,1-1.113,2.786A3.815,3.815,0,0,1,53.113,19.038Z" transform="translate(72.95 10.335)" fill="#fff"/>
  </g>
</svg>
